<?xml version="1.0" encoding="UTF-8" standalone="no"?>
<svg
   version="1.1"
   width="7.8740in"
   height="5.9055in"
   viewBox="0 0 566.9291 425.1969"
   id="svg56"
   sodipodi:docname="Kampus Merdeka.cdr"
   xmlns:inkscape="http://www.inkscape.org/namespaces/inkscape"
   xmlns:sodipodi="http://sodipodi.sourceforge.net/DTD/sodipodi-0.dtd"
   xmlns:xlink="http://www.w3.org/1999/xlink"
   xmlns="http://www.w3.org/2000/svg"
   xmlns:svg="http://www.w3.org/2000/svg">
  <defs
     id="defs57" />
  <sodipodi:namedview
     id="namedview56"
     pagecolor="#ffffff"
     bordercolor="#000000"
     borderopacity="0.25"
     inkscape:showpageshadow="2"
     inkscape:pageopacity="0.0"
     inkscape:pagecheckerboard="0"
     inkscape:deskcolor="#d1d1d1"
     inkscape:document-units="in" />
  <g
     id="Layer1000">
    <path
       d="  M0.0000,0.0000 L0.0000,425.1969 L566.9291,425.1969 L566.9291,0.0000 L0.0000,0.0000 Z"
       style="fill: none; "
       id="path1" />
    <g
       id="Layer1001">
      <g
         id="Layer1002">
        <path
           d="  M296.8227,168.2287 L296.5761,167.8443 C296.3742,167.3620 296.4671,166.5905 296.4932,166.0655 L296.5157,156.6171 C296.7147,155.1795 296.4830,148.6244 296.4788,146.2417 C296.4749,143.8086 296.4702,140.9907 296.5365,138.5813 C296.6083,135.9638 297.9826,132.1980 299.4053,130.0500 C299.7905,129.4685 300.0163,129.2217 300.2873,128.5862 C299.7083,128.5691 300.1549,128.6547 299.6050,128.3660 C298.8427,127.9659 298.8654,127.6805 297.6661,127.2110 L295.7678,126.0095 C295.6984,125.9633 295.5630,125.8665 295.4804,125.8069 L295.2942,125.6681 C295.2663,125.6480 295.2279,125.6194 295.2001,125.5999 C295.1720,125.5801 295.1326,125.5529 295.1043,125.5334 C294.6145,125.1946 294.3464,125.0280 293.8314,124.6885 L292.9714,124.0831 C292.9433,124.0631 292.9051,124.0340 292.8773,124.0139 C291.8354,123.2597 290.4144,122.5705 290.0104,122.1616 C290.6068,121.4365 292.9061,120.4041 294.1941,120.1411 C295.1126,119.6122 298.6396,118.8143 300.1778,118.6363 C306.6027,118.3812 308.1002,117.9342 314.7357,119.5323 C315.4804,119.7115 316.1662,119.9111 316.8850,120.1465 C317.2213,120.2565 317.5559,120.3459 317.8846,120.4522 C317.9325,120.4676 318.3407,120.6209 318.3529,120.6272 L318.2006,120.8782 C318.6293,121.3490 318.6594,120.9860 319.8958,121.4193 C321.4395,121.9600 322.9169,122.7357 324.2284,123.6009 C326.9112,125.3709 329.0690,127.9058 329.9863,131.0344 C330.3905,132.4138 330.4220,133.1976 330.6479,134.7701 C331.0208,137.3667 330.3201,140.5072 329.6644,142.3972 C329.3139,143.4066 328.7200,144.3495 328.1874,145.3176 C326.8313,147.7829 324.2604,150.7385 321.9469,152.2684 C318.6701,154.4356 315.7918,155.1856 311.6863,155.1998 C310.9641,155.2022 310.1669,155.1790 309.6864,155.0827 C308.9443,154.9341 308.3720,154.7550 307.6165,154.7107 C307.6175,155.4313 307.5872,155.2895 307.1719,155.7270 C306.5995,156.3299 306.8070,156.3197 306.2757,157.1294 C305.8272,157.8132 305.9788,157.8606 305.6095,158.3626 C305.5884,158.3915 305.4511,158.5640 305.3453,158.8057 C304.8733,159.8821 304.4412,160.2990 304.2379,160.8015 L304.1220,161.1867 C303.9813,161.6562 303.8779,161.7747 303.7701,162.2225 C303.3106,164.1298 303.3236,163.4768 302.8990,164.0027 C302.5141,164.4796 302.7326,164.5025 302.2892,165.0226 L300.4530,168.2507 C300.0713,169.1875 300.0520,169.3053 299.4732,169.2068 C299.8308,169.7758 300.1111,169.7748 301.2300,170.0546 C308.4040,171.8495 313.3377,171.5421 320.5516,169.4397 C321.6849,169.1093 323.1215,168.5340 324.0656,168.0684 C326.9586,166.6408 327.6730,166.2485 330.3819,164.4505 C330.9191,164.0939 331.2933,163.8424 331.8112,163.4369 C333.6975,161.9602 336.3630,159.1589 337.9416,157.3530 C339.2345,155.8736 341.0279,153.2991 342.0268,151.5037 C348.2596,140.2995 347.9976,127.6255 341.0323,117.2181 C336.7103,110.7599 326.7411,104.9937 318.6902,105.0350 C313.9529,105.0595 310.0058,105.3405 305.6351,106.9641 C302.6180,108.0849 300.0903,109.3585 297.5493,111.0926 C295.2111,112.6880 292.9110,114.7953 290.8815,116.8018 C286.9852,120.6549 283.5247,127.2408 281.9224,132.4346 C280.2152,137.9684 280.9086,140.7568 280.9086,145.9159 C280.9086,153.7463 280.6608,186.9292 281.0401,190.0842 C281.2363,191.7161 281.5885,192.5781 282.4921,193.5183 C285.1092,196.2420 290.1839,196.6528 293.1772,194.1794 C297.3020,190.7708 296.5411,186.7427 296.5419,183.0496 L296.5553,168.7251 C296.6870,168.1942 296.4250,168.5337 296.8227,168.2287 Z"
           style="fill-rule: evenodd; fill: #1f5fa9; "
           id="path2" />
        <defs
           id="defs3">
          <linearGradient
             id="grad1">
            <stop
               offset="0%"
               stop-color="#1f5fa9"
               stop-opacity="1.0000"
               id="stop2" />
            <stop
               offset="100%"
               stop-color="#003853"
               stop-opacity="1.0000"
               id="stop3" />
          </linearGradient>
          <linearGradient
             xlink:href="#grad1"
             id="grad2"
             x1="0"
             y1="0"
             x2="0"
             y2="1"
             gradientTransform="rotate(354 .5 .5)"
             gradientUnits="objectBoundingBox" />
        </defs>
        <path
           d="  M296.5731,176.0640 L280.8898,176.0640 L280.7800,139.1163 C281.5653,118.0239 307.4281,112.2234 319.2833,121.2414 C304.5844,120.6351 295.4552,130.2636 296.5731,142.8264 L296.5731,176.0640 Z"
           style="fill: url(#grad2); "
           id="path3" />
        <defs
           id="defs5">
          <linearGradient
             id="grad3">
            <stop
               offset="0%"
               stop-color="#1f5fa9"
               stop-opacity="1.0000"
               id="stop4" />
            <stop
               offset="100%"
               stop-color="#043754"
               stop-opacity="1.0000"
               id="stop5" />
          </linearGradient>
        </defs>
        <path
           d="  M310.0307,171.2278 C306.1242,171.3475 301.6411,170.4545 296.5553,168.5824 L296.4812,142.4114 C298.0188,149.7269 302.9354,153.9729 310.0307,155.1380 L310.0307,171.2278 Z"
           style="fill: url(#grad3); "
           id="path5" />
      </g>
      <path
         d="  M158.1643,183.1148 C157.7166,183.1336 157.9366,183.2593 157.7463,182.8900 C157.6036,182.6135 157.6869,182.6809 157.6619,182.3695 C157.6236,181.8886 157.5836,181.5488 157.5564,181.2615 C157.4884,180.5424 157.6038,180.8675 157.5251,180.2310 C157.4165,179.3523 157.2412,177.4543 156.9588,176.7453 L155.9587,171.9905 C155.7975,171.2433 156.1286,170.9646 155.7226,169.8235 C155.3690,168.8295 155.1649,167.9735 155.5935,166.9411 C154.7462,167.2234 155.0111,167.1919 154.4209,167.7322 C153.7901,168.3097 151.7279,169.6000 150.9993,169.9022 C147.0733,171.5310 142.7153,172.0799 138.5566,170.9827 C137.0017,170.5726 134.9873,169.2904 133.7094,168.4242 C128.5847,164.9500 126.8877,158.5803 128.1261,152.4676 C128.7414,149.4311 128.8419,149.6775 130.2049,147.1403 C130.9409,145.7703 132.2540,143.9440 133.3404,142.8700 C134.7478,141.4787 135.4993,140.5628 137.4064,139.5301 C138.3052,139.0433 138.8337,138.7537 139.8331,138.3295 C142.5268,137.1861 146.5220,136.8049 149.4234,137.2912 C155.7859,138.3579 161.8750,144.1411 161.9485,150.7621 C162.0511,159.9941 162.4076,170.8532 162.5893,180.3932 C165.2456,184.9933 168.9794,185.4766 173.5306,183.0651 C175.2721,182.1424 176.6405,180.4871 177.2281,178.6009 C177.8337,176.6566 177.5089,173.0500 177.5089,170.5686 C177.5089,166.0050 177.7326,150.2400 177.1989,146.3925 C176.8478,143.8609 176.2508,141.9210 175.5266,139.7519 C174.3593,136.2551 172.3706,133.7147 169.9960,131.0752 C169.8774,130.9434 169.8770,130.9371 169.7871,130.8307 L167.7408,128.7964 C165.2456,126.6502 165.0816,126.5053 162.0300,124.6832 C157.3341,121.8793 151.0540,121.1415 144.7246,121.6074 C139.5344,121.9895 132.5084,124.8118 128.4327,127.8349 C127.9653,128.1815 127.7158,128.4155 127.2488,128.7666 L125.0271,130.6257 C121.3644,134.1066 118.4888,136.8269 115.8979,142.0516 C113.7508,146.3811 113.2123,148.3483 112.4532,152.9657 C111.5879,158.2290 112.8363,165.3352 114.3789,169.1659 C114.7826,170.1685 115.1249,171.0866 115.5937,172.0318 C116.4860,173.8304 117.7646,175.2460 118.9989,176.7884 C121.0530,179.3548 125.1203,182.5505 128.0145,184.0958 C133.0095,186.7625 138.9254,187.8224 145.3645,186.9392 C149.4211,186.3828 148.5917,186.5756 152.2396,185.6529 C153.2501,185.3973 154.3420,185.0026 155.2946,184.6272 C155.8433,184.4110 156.2180,184.2101 156.7617,183.9785 C157.3294,183.7369 157.7742,183.6412 158.1643,183.1148 Z"
         style="fill-rule: evenodd; fill: #1f5fa9; "
         id="path6" />
      <path
         d="  M300.7218,200.4961 L300.9507,200.8529 C301.1380,201.3004 301.0518,202.0164 301.0276,202.5037 L301.0067,211.2722 C300.8221,212.6064 301.0371,218.6899 301.0409,220.9011 C301.0446,223.1591 301.0489,225.7743 300.9874,228.0103 C300.9207,230.4395 299.6453,233.9343 298.3250,235.9278 C297.9675,236.4674 297.7580,236.6965 297.5064,237.2862 C298.0438,237.3021 297.6294,237.2227 298.1397,237.4906 C298.8471,237.8619 298.8261,238.1268 299.9391,238.5625 L301.7007,239.6776 C301.7652,239.7204 301.8908,239.8103 301.9675,239.8656 L302.1403,239.9944 C302.1662,240.0130 302.2018,240.0396 302.2276,240.0577 C302.2537,240.0761 302.2902,240.1013 302.3166,240.1194 C302.7711,240.4338 303.0199,240.5885 303.4978,240.9035 L304.2960,241.4653 C304.3221,241.4839 304.3575,241.5109 304.3833,241.5295 C305.3503,242.2295 306.6690,242.8691 307.0439,243.2486 C306.4905,243.9216 304.3566,244.8796 303.1612,245.1237 C302.3088,245.6145 299.0356,246.3551 297.6080,246.5202 C291.6454,246.7570 290.2557,247.1719 284.0976,245.6887 C283.4065,245.5224 282.7700,245.3371 282.1030,245.1187 C281.7909,245.0166 281.4804,244.9336 281.1753,244.8350 C281.1308,244.8207 280.7520,244.6785 280.7407,244.6726 L280.8820,244.4396 C280.4842,244.0028 280.4563,244.3396 279.3088,243.9374 C277.8762,243.4357 276.5051,242.7158 275.2880,241.9129 C272.7982,240.2702 270.7956,237.9177 269.9444,235.0142 C269.5692,233.7340 269.5400,233.0066 269.3304,231.5473 C268.9843,229.1376 269.6346,226.2229 270.2431,224.4690 C270.5684,223.5322 271.1195,222.6571 271.6138,221.7587 C272.8724,219.4708 275.2583,216.7279 277.4053,215.3080 C280.4463,213.2968 283.1175,212.6007 286.9276,212.5875 C287.5979,212.5853 288.3378,212.6068 288.7837,212.6962 C289.4723,212.8341 290.0035,213.0003 290.7046,213.0414 C290.7037,212.3727 290.7318,212.5043 291.1172,212.0983 C291.6484,211.5387 291.4558,211.5483 291.9489,210.7968 C292.3651,210.1622 292.2245,210.1182 292.5672,209.6523 C292.5867,209.6255 292.7142,209.4654 292.8124,209.2411 C293.2504,208.2422 293.6514,207.8552 293.8401,207.3889 L293.9476,207.0314 C294.0783,206.5957 294.1742,206.4857 294.2743,206.0701 C294.7007,204.3001 294.6887,204.9061 295.0826,204.4180 C295.4399,203.9755 295.2371,203.9542 295.6486,203.4715 L297.3526,200.4757 C297.7069,199.6063 297.7249,199.4970 298.2620,199.5884 C297.9301,199.0603 297.6700,199.0612 296.6316,198.8015 C289.9738,197.1358 285.3950,197.4211 278.7003,199.3722 C277.6485,199.6789 276.3153,200.2128 275.4391,200.6449 C272.7542,201.9697 272.0912,202.3338 269.5772,204.0025 C269.0786,204.3334 268.7314,204.5668 268.2507,204.9431 C266.5002,206.3135 264.0265,208.9133 262.5615,210.5893 C261.3616,211.9622 259.6972,214.3515 258.7702,216.0177 C252.9859,226.4157 253.2290,238.1778 259.6931,247.8364 C263.7042,253.8299 272.9561,259.1812 280.4277,259.1429 C284.8241,259.1202 288.4872,258.8594 292.5434,257.3526 C295.3435,256.3124 297.6892,255.1305 300.0475,253.5212 C302.2174,252.0405 304.3520,250.0849 306.2355,248.2227 C309.8515,244.6469 313.0630,238.5349 314.5500,233.7147 C316.1343,228.5791 315.4908,225.9914 315.4908,221.2035 C315.4908,213.9364 315.7208,183.1411 315.3688,180.2131 C315.1867,178.6986 314.8598,177.8986 314.0213,177.0261 C311.5925,174.4984 306.8829,174.1171 304.1050,176.4125 C300.2770,179.5760 300.9831,183.3142 300.9824,186.7416 L300.9699,200.0354 C300.8477,200.5281 301.0908,200.2130 300.7218,200.4961 Z"
         style="fill-rule: evenodd; fill: #224697; "
         id="path7" />
      <path
         d="  M466.4669,134.8887 C470.3072,137.7618 470.2192,140.3927 469.0862,144.4965 C468.0522,144.4720 467.2785,143.7119 466.3737,143.1762 L461.9843,140.6088 C461.9571,140.5916 461.9199,140.5680 461.8922,140.5512 L457.9821,138.2647 C457.6559,138.0685 457.4765,138.0034 457.1885,137.8464 C457.0644,137.7786 456.9165,137.7346 456.8253,137.5958 C456.5987,137.2506 456.4799,137.8035 456.7968,137.0135 C455.9979,137.3388 455.3154,138.1767 452.8476,139.1091 C449.8765,140.2312 445.5967,140.1638 442.5451,138.8737 C436.9479,136.5075 435.5663,128.2014 427.1239,132.4270 C423.6291,134.1763 422.6497,136.2864 422.6420,140.0368 C422.6370,142.4016 423.0011,143.2866 424.0433,144.6813 C427.4317,149.2159 432.5361,153.1795 438.0366,154.8700 C441.3516,155.8887 444.7128,156.1209 448.9520,155.7691 C454.4081,155.3166 460.9847,152.8919 465.1457,149.4436 L470.7415,144.4600 C471.1001,144.1030 471.1405,144.0079 471.4352,143.6421 C471.6953,143.3186 471.8745,143.2009 472.1512,142.8466 C473.9975,140.4834 475.4460,138.2681 476.3834,134.9876 C477.2712,131.8806 477.1709,127.7494 475.6406,124.6676 C473.4073,120.1707 469.6687,118.1820 464.8951,117.2767 L451.7841,115.2744 C450.7750,115.1546 450.0242,114.9459 449.0325,114.9459 C449.0784,115.0353 449.1589,115.2614 449.1990,115.3572 C448.6370,115.7296 448.3426,116.5203 447.9118,117.0982 L439.5266,129.1023 C431.8663,125.3546 438.0836,111.7231 444.1491,108.3419 C448.9695,105.6548 454.3292,105.7938 458.4920,108.4145 C460.4127,109.6236 460.6803,110.5570 461.7441,111.6614 C464.4276,114.4478 466.9178,116.0124 470.9845,114.4732 C472.4050,113.9355 474.0767,112.9080 474.9363,111.7748 C478.7838,106.7034 475.8436,102.0511 472.2544,98.2780 C470.8915,96.8452 468.4749,95.0329 466.7246,93.9839 C462.9054,91.6950 458.6333,90.5854 454.2392,90.4598 L452.5233,90.4598 C450.8589,90.5072 449.1832,90.6907 447.5140,90.9998 C442.7953,91.8735 437.5535,94.2923 433.9968,97.1300 L428.8160,101.7735 C426.2831,104.9487 423.7528,107.4870 422.6085,112.1915 C421.1693,118.1073 423.2751,123.8422 428.2038,127.2191 C429.7555,128.2819 429.4865,128.1415 431.7098,128.7006 C435.7787,129.7236 453.0790,132.2504 457.5573,132.6262 C460.2362,132.8514 464.3788,133.3252 466.4669,134.8887 Z"
         style="fill-rule: evenodd; fill: #0f74bb; "
         id="path8" />
      <path
         d="  M50.5595,211.7263 C50.7251,211.8896 50.6405,211.7830 50.8176,212.0271 L65.1326,241.0040 C65.0881,241.6148 64.9677,241.4545 64.9153,242.2132 L64.9178,250.0908 L64.9178,275.1635 C65.4034,274.9600 65.2321,275.1406 65.2197,273.3501 L65.2192,241.7598 C65.5971,242.1946 66.0968,243.5201 66.4787,244.2788 L71.4175,254.9077 C71.6173,255.3568 71.8375,255.7284 72.0723,256.2176 C73.4656,259.1202 74.9703,262.6595 76.4034,265.4895 C76.6395,265.9560 76.7915,266.3582 77.0092,266.8483 C77.2090,267.2977 77.4293,267.6692 77.6643,268.1584 C79.2370,271.4342 81.7645,281.7331 89.5325,278.7724 C90.6605,278.3424 92.1511,277.3192 92.8774,276.3743 C94.0129,274.8972 94.2272,274.5377 95.0136,272.6159 L100.8820,258.9866 C101.2765,258.0932 101.5820,257.2512 101.9955,256.3215 L109.6087,238.3920 C109.7221,238.1250 109.7522,238.0345 109.8736,237.7610 C109.9378,237.6165 109.9491,237.5530 110.0265,237.4418 C110.2884,237.0653 109.9843,237.3393 110.4064,237.0741 C110.1124,236.1866 110.6255,235.6599 110.9873,234.8078 C111.2753,234.1294 111.5756,233.4739 111.8864,232.8390 C113.6648,229.2061 123.9349,205.4657 124.7023,204.3284 L124.6140,215.1306 L124.6140,268.6643 C124.8971,268.5456 124.9397,268.8591 124.9329,267.6148 L124.9157,204.7283 C124.9157,202.8321 124.9910,201.2106 124.6469,199.7068 C124.2985,198.1846 123.7725,197.0135 122.9102,196.0024 C121.0410,193.8102 116.8902,194.1241 114.7978,195.2137 C111.5720,196.8940 111.4901,198.7074 110.2560,201.2518 C109.6835,202.4318 109.1788,203.6638 108.6370,204.9227 L106.1712,210.4677 C105.9022,211.0821 105.6055,211.6927 105.3327,212.3496 C104.7815,213.6760 104.2510,214.8371 103.6560,216.1141 L87.5864,254.0027 C87.3700,253.0735 82.1972,242.3461 81.5710,240.9741 C81.2156,240.1952 80.8717,239.6107 80.5471,238.8241 L76.5036,230.1716 C76.1228,229.4116 75.8522,228.7211 75.4984,228.0030 C72.8011,222.5278 70.0203,216.0810 67.3327,210.6253 L65.8232,207.4494 C65.6445,207.0223 65.6189,206.6646 65.4530,206.1570 C64.7479,204.0002 63.3965,201.7415 61.1839,200.9041 C58.7751,199.9926 55.5220,200.6515 53.6415,202.0670 C52.4840,202.9380 51.6475,204.3924 51.1202,205.8935 C50.4533,207.7908 50.5595,209.2678 50.5595,211.7263 Z"
         style="fill-rule: evenodd; fill: #224697; "
         id="path9" />
      <path
         d="  M237.9610,138.3731 C237.6534,137.8505 237.6815,137.4309 237.6720,136.7604 C237.6371,134.2845 236.5674,130.4705 235.5134,128.2697 C233.4462,123.9531 231.5119,123.1649 230.3635,121.7913 C230.1212,121.5017 230.1664,121.7487 230.1498,121.2941 C229.4283,121.1272 229.7084,120.9895 228.6347,120.1922 C221.7346,115.0702 214.4501,114.5946 206.1320,116.6682 C204.7614,117.0098 203.4359,117.4548 202.2965,117.9710 C201.7311,118.2273 201.1278,118.4761 200.5657,118.8096 C200.2200,119.0146 200.0127,119.0983 199.6958,119.2999 C199.3307,119.5324 199.2467,119.6683 198.8183,119.7826 C197.4885,118.8919 197.0443,117.3316 192.4767,117.6725 C189.0805,117.9259 186.5483,120.2535 185.3870,123.2783 C184.0962,126.6402 184.6120,131.6173 184.6120,135.3510 L184.6120,173.5916 C184.6099,175.3340 184.6592,175.9700 185.1196,177.3162 C185.8388,179.4199 187.0312,181.0761 189.1218,181.7777 C193.3418,183.1942 198.6582,180.2589 199.7281,176.1642 C200.2926,174.0035 200.0272,162.0289 200.0272,159.5348 C200.0272,153.9387 199.7963,147.9641 200.1894,142.6171 C200.3037,141.0625 200.5968,140.3970 201.0636,139.2590 C201.9937,136.9906 202.9242,135.8731 204.5228,134.2545 C205.3414,133.4257 205.9583,133.0837 207.0098,132.5098 C209.7273,131.0267 214.2621,130.7118 217.3586,132.3767 C218.7960,133.1497 221.1284,135.2303 221.6074,136.7429 C222.4462,139.3913 222.4575,141.4784 222.5407,144.2738 L222.6968,148.3497 C222.6968,154.0430 222.6968,159.7362 222.6968,165.4295 C222.6968,168.2398 222.1420,173.1064 223.5149,175.1918 C226.3837,179.5499 235.2389,179.8280 237.5420,171.9635 C238.1953,169.7332 237.9610,166.4430 237.9610,163.9180 L237.9610,138.3731 Z"
         style="fill-rule: evenodd; fill: #1f5fa9; "
         id="path10" />
      <defs
         id="defs11">
        <linearGradient
           id="grad4">
          <stop
             offset="0%"
             stop-color="#224697"
             stop-opacity="1.0000"
             id="stop10" />
          <stop
             offset="100%"
             stop-color="#00347d"
             stop-opacity="1.0000"
             id="stop11" />
        </linearGradient>
        <linearGradient
           xlink:href="#grad4"
           id="grad5"
           x1="0"
           y1="0"
           x2="0"
           y2="1"
           gradientTransform="rotate(-0 .5 .5)"
           gradientUnits="objectBoundingBox" />
      </defs>
      <path
         d="  M206.0726,222.7395 L206.2978,216.1928 C207.0659,216.2588 206.7689,216.5795 208.5978,215.7029 C208.9348,215.5414 209.3411,215.3758 209.5831,215.3361 C211.9613,214.9440 211.5410,214.4497 212.8894,214.2329 C213.1897,214.1843 213.2618,214.2376 213.5411,214.1387 C214.3061,213.8679 213.5776,213.5976 214.9972,213.3113 C214.6550,213.9757 211.0619,217.3047 209.1290,221.5210 C208.0214,223.9364 206.9357,226.7793 206.5662,229.4406 C206.4818,230.0478 206.4403,230.5141 206.3532,231.0596 L206.1180,232.4548 C206.1121,232.4348 206.0926,232.5323 206.0726,232.5677 C206.0726,240.1158 206.0726,247.6638 206.0726,255.2119 C206.0726,256.9480 205.8517,259.1839 206.2180,260.6589 C206.6027,262.2079 207.1253,263.5259 208.0711,264.5493 C209.0160,265.5716 210.2871,266.1928 211.9887,266.3788 C214.5799,266.6624 218.0500,264.8535 219.5257,262.6207 C220.3778,261.3317 220.7443,260.2346 220.7332,258.0848 L220.7312,235.2594 C220.7221,233.5058 220.9963,231.5972 221.3760,230.1605 C222.1275,227.3171 225.1353,222.8109 227.7714,220.9884 C228.1250,220.7441 228.3187,220.6230 228.6791,220.3846 C230.9133,218.9085 233.9919,218.0105 237.6639,218.0239 C241.3884,218.0375 246.8495,220.9741 250.4169,215.5230 C251.5410,213.8053 252.3716,210.8753 251.6095,208.7625 C250.1506,204.7181 246.2668,204.1186 242.5618,203.4522 C236.7627,202.4091 230.0924,203.7970 224.7935,206.2205 C223.2484,206.9271 221.5759,208.0918 220.2787,208.9605 C219.6454,208.4962 219.6980,207.7980 218.1577,206.8495 C214.9070,204.8476 210.9683,205.3779 208.6003,207.8609 C205.3393,211.2799 206.0726,216.3257 206.0726,222.7395 Z"
         style="fill: url(#grad5); "
         id="path11" />
      <defs
         id="defs13">
        <linearGradient
           id="grad6">
          <stop
             offset="0%"
             stop-color="#1f5fa9"
             stop-opacity="1.0000"
             id="stop12" />
          <stop
             offset="100%"
             stop-color="#ffffff"
             stop-opacity="1.0000"
             id="stop13" />
        </linearGradient>
        <linearGradient
           xlink:href="#grad6"
           id="grad7"
           x1="0"
           y1="0"
           x2="0"
           y2="1"
           gradientTransform="rotate(260 .5 .5)"
           gradientUnits="objectBoundingBox" />
      </defs>
      <path
         d="  M390.9047,160.7780 L390.3951,160.8156 C390.3864,160.0555 390.4275,159.9126 390.2420,159.3304 C390.1281,158.9732 389.9060,158.3973 389.8151,158.1010 C389.4814,157.0148 389.3256,156.2813 389.3168,155.1515 C389.3385,155.1531 389.0199,155.2624 389.5420,155.3579 C390.1886,155.4759 389.3950,155.5566 390.0442,155.1515 L389.4222,154.1047 C389.4116,154.1009 389.3716,154.0796 389.3605,154.0764 C389.3494,154.0734 389.3075,154.0585 389.2961,154.0569 C389.1094,154.0303 389.4651,153.7627 388.9935,154.1574 C388.7048,154.3991 388.9334,154.1306 388.8690,154.3157 C388.7456,154.0487 388.7413,154.1197 388.6368,153.9528 C388.2809,153.3848 388.2988,153.2279 388.1051,152.5585 L386.7499,147.7212 C386.7387,147.6769 386.7301,147.6379 386.7181,147.5946 L386.6419,147.3533 C386.4958,146.8996 386.4359,146.8266 386.6040,146.3848 C380.2703,147.5567 378.6159,147.4850 372.8162,144.0705 C366.1257,140.1316 366.8751,129.1502 366.8751,120.5384 L366.8772,105.8750 C366.8942,103.1850 365.7524,101.6285 363.4502,100.3844 C357.9195,97.3954 351.2585,101.4013 351.3068,109.8049 L351.3086,130.3632 C351.3059,131.5497 351.4635,132.2086 351.4649,133.2298 C351.4706,137.2143 352.0244,140.4417 352.9889,143.4953 C353.8952,146.3655 355.2602,149.1293 356.9621,151.3112 C357.2231,151.6458 357.3488,151.7245 357.6196,152.0139 C357.9430,152.3596 357.9748,152.5005 358.2967,152.8484 C358.7970,153.3896 359.2824,153.8289 359.8098,154.3579 C360.8413,155.3931 361.8538,156.1515 362.9798,157.0822 C366.2834,159.8131 371.0223,161.7453 375.2921,162.4528 C378.5998,163.0008 382.8951,162.6914 386.2649,162.1495 L390.3910,161.1413 C391.0914,160.8480 390.5776,161.1722 390.9047,160.7780 Z"
         style="fill: url(#grad7); "
         id="path13" />
      <defs
         id="defs15">
        <linearGradient
           id="grad8">
          <stop
             offset="0%"
             stop-color="#1f5fa9"
             stop-opacity="1.0000"
             id="stop14" />
          <stop
             offset="100%"
             stop-color="#052757"
             stop-opacity="1.0000"
             id="stop15" />
        </linearGradient>
        <linearGradient
           xlink:href="#grad8"
           id="grad9"
           x1="0"
           y1="0"
           x2="0"
           y2="1"
           gradientTransform="rotate(69 .5 .5)"
           gradientUnits="objectBoundingBox" />
      </defs>
      <path
         d="  M244.2584,128.7004 C244.9908,128.5532 245.6367,128.1483 246.4022,127.9227 C247.0210,127.7401 248.1163,127.5734 248.8560,127.5046 C250.6846,127.3350 252.3274,127.3422 253.9390,127.9864 C261.9080,131.1721 260.3282,137.1172 260.3282,145.1756 C260.3282,149.8140 260.1213,165.2297 260.4775,168.6057 C260.8349,171.9962 263.2435,173.7926 266.5827,174.2893 C269.4894,174.7216 272.8876,172.7642 274.4957,170.5298 C276.2645,168.0717 275.7437,163.7747 275.7437,159.9882 C275.7437,155.0036 276.0583,134.8372 275.3780,131.0310 C275.0786,129.3566 274.5835,127.9159 274.0165,126.4978 L272.6025,123.5287 C272.3754,123.1917 272.2237,122.9617 271.9971,122.6228 C271.2636,121.5262 270.2801,120.2800 269.3587,119.3666 C265.9662,116.0043 263.2911,113.9547 258.4511,112.5911 C248.9220,109.9058 239.2157,113.9525 231.6863,119.7343 C231.1671,120.2201 230.4783,120.5883 230.1498,121.2941 C230.1664,121.7487 230.1212,121.5017 230.3635,121.7913 C231.5119,123.1649 233.4462,123.9531 235.5134,128.2697 C236.5674,130.4705 237.6371,134.2845 237.6720,136.7604 C237.6815,137.4309 237.6534,137.8505 237.9610,138.3731 C238.5033,136.9788 237.8011,137.3245 239.0674,134.7950 C239.5972,133.7365 240.7116,132.3558 240.6821,131.8745 C240.7261,131.8552 240.7860,131.7693 240.8066,131.8022 L243.3774,129.4328 C244.3554,128.7229 243.9903,129.2269 244.2584,128.7004 Z"
         style="fill: url(#grad9); "
         id="path15" />
      <path
         d="  M400.1047,155.9079 C400.6361,156.5947 400.7654,157.4415 401.9111,158.3519 C402.6602,158.9473 403.6932,159.4418 404.7753,159.7194 C405.9863,160.0301 406.9650,160.2504 408.3416,159.8940 C409.2663,159.6545 410.5816,159.0385 411.3032,158.6236 C416.3621,155.7138 415.2369,150.9601 415.2369,145.6290 L415.2369,109.2648 L415.2369,103.4585 C415.2369,100.0004 415.3600,98.5107 413.5382,96.6930 C412.0895,95.2477 409.2677,94.1617 407.4159,94.4237 C405.0623,94.7564 403.2643,95.9313 401.9796,97.4549 C400.9723,98.6497 399.6631,101.4464 399.6649,103.6043 C399.6651,104.5506 399.6833,106.5632 399.7123,109.2648 L399.7123,155.9079 L400.1301,155.6312 C400.1231,155.7968 400.1147,155.8959 400.1047,155.9079 Z"
         style="fill-rule: evenodd; fill: #1f5fa9; "
         id="path16" />
      <defs
         id="defs17">
        <linearGradient
           id="grad10">
          <stop
             offset="0%"
             stop-color="#224697"
             stop-opacity="1.0000"
             id="stop16" />
          <stop
             offset="100%"
             stop-color="#00234a"
             stop-opacity="1.0000"
             id="stop17" />
        </linearGradient>
        <linearGradient
           xlink:href="#grad10"
           id="grad11"
           x1="0"
           y1="0"
           x2="0"
           y2="1"
           gradientTransform="rotate(263 .5 .5)"
           gradientUnits="objectBoundingBox" />
      </defs>
      <path
         d="  M65.2481,275.1635 L65.2481,250.0908 L65.2455,242.2132 C65.2991,241.4545 65.4223,241.6148 65.4678,241.0040 L50.8235,212.0271 C50.6423,211.7830 50.7289,211.8896 50.5595,211.7263 L50.5595,223.4199 L50.5595,273.8033 C50.5595,276.1107 50.5340,276.5124 51.1563,278.2079 C51.6101,279.4442 52.3773,280.4720 53.3609,281.1914 C55.7374,282.9295 58.7559,282.4752 61.2304,281.2123 C62.3102,280.6611 63.2904,279.8793 64.0371,278.9684 C64.5487,278.3444 65.6910,276.2851 65.2481,275.1635 Z"
         style="fill: url(#grad11); "
         id="path17" />
      <defs
         id="defs19">
        <linearGradient
           id="grad12">
          <stop
             offset="0%"
             stop-color="#224697"
             stop-opacity="1.0000"
             id="stop18" />
          <stop
             offset="100%"
             stop-color="#031c47"
             stop-opacity="1.0000"
             id="stop19" />
        </linearGradient>
        <linearGradient
           xlink:href="#grad12"
           id="grad13"
           x1="0"
           y1="0"
           x2="0"
           y2="1"
           gradientTransform="rotate(101 .5 .5)"
           gradientUnits="objectBoundingBox" />
      </defs>
      <path
         d="  M110.0311,243.4225 C110.0311,245.2912 109.8790,269.8007 110.0901,270.9521 C110.4533,272.9361 111.3936,274.2053 112.8683,275.0886 C116.0843,277.0151 120.3509,276.2949 122.7895,273.4203 C123.3841,272.7192 125.1387,269.7277 124.6841,268.5583 L124.6841,214.2686 L124.7742,203.3138 C123.9911,204.4672 113.5100,228.5428 111.6950,232.2271 C111.3779,232.8709 111.0714,233.5357 110.7774,234.2237 C110.4082,235.0879 109.8846,235.6220 110.1846,236.5221 C109.7334,237.6825 110.0311,241.8873 110.0311,243.4225 Z"
         style="fill: url(#grad13); "
         id="path19" />
      <path
         d="  M456.7968,137.0135 C456.4799,137.8035 456.5987,137.2506 456.8253,137.5958 C456.9165,137.7346 457.0644,137.7786 457.1885,137.8464 C457.4765,138.0034 457.6559,138.0685 457.9821,138.2647 L461.8922,140.5512 C461.9199,140.5680 461.9571,140.5916 461.9843,140.6088 L466.3737,143.1762 C467.2785,143.7119 468.0522,144.4720 469.0862,144.4965 C469.3591,143.5080 470.3541,140.9863 469.6104,139.9320 L469.6505,141.1493 C468.7764,140.9484 468.3586,141.0348 468.0499,140.4798 C467.8759,140.1670 468.2470,140.3630 467.6071,139.9849 L465.5002,138.7555 C464.8635,138.4384 464.4952,138.6507 464.0400,138.1127 C463.9309,137.9839 463.9109,137.7899 463.5473,137.5411 C463.5221,137.5239 463.4840,137.4985 463.4570,137.4817 L462.0310,136.6549 C460.6794,136.1303 460.9185,136.0734 460.0437,135.4347 C460.0083,135.4090 459.9017,135.3403 459.8647,135.3167 C459.8382,135.2997 459.7962,135.2811 459.7697,135.2643 C459.0854,134.8327 459.3242,135.4474 459.2997,134.7463 C458.7290,135.0273 458.4237,135.4734 457.9719,135.9207 C457.5491,136.3392 457.0356,136.5633 456.7968,137.0135 Z"
         style="fill-rule: evenodd; fill: #0c5c96; "
         id="path20" />
      <defs
         id="defs21">
        <radialGradient
           id="grad14"
           cx="50.0000%"
           cy="50.0000%"
           r="100.0000%">
          <stop
             offset="0%"
             stop-color="#e68102"
             stop-opacity="1.0000"
             id="stop20" />
          <stop
             offset="100%"
             stop-color="#ffec00"
             stop-opacity="1.0000"
             id="stop21" />
        </radialGradient>
      </defs>
      <path
         d="  M50.5593,295.2580 L511.1805,249.2640 L501.9252,269.0796 L515.1226,288.7431 L54.5011,334.7371 L64.2459,313.8072 L50.5593,295.2580 Z"
         style="fill: url(#grad14); "
         id="path21" />
      <path
         d="  M91.6819,319.8950 C91.6342,322.3914 95.6482,321.9110 95.6947,319.4733 L96.0148,302.7031 C96.0624,300.2065 92.0477,300.7164 92.0017,303.1247 L91.6819,319.8950 Z Z M110.7888,317.6522 C110.7641,318.9446 111.7231,319.5765 112.8174,319.4615 C113.9118,319.3465 114.7468,318.5259 114.7713,317.2337 L114.9876,305.8969 L124.8150,317.1748 C125.6817,317.8750 126.1941,318.0555 127.2581,317.9437 C128.0531,317.6257 128.8834,317.0403 128.9082,315.7479 L129.2237,299.2128 C129.2420,298.2434 128.1980,297.2980 127.1036,297.4130 C126.0700,297.5216 125.1682,298.6716 125.1496,299.6408 L124.9323,311.0364 L115.1013,299.9350 C114.2952,299.2575 114.0570,299.0189 112.9626,299.1339 C111.3817,299.3001 111.1188,300.3535 111.0986,301.4107 L110.7888,317.6522 Z Z M153.0341,298.5274 C161.6072,297.6264 160.9916,310.8225 152.7830,311.6851 L147.7363,312.2156 L147.9874,299.0579 L153.0341,298.5274 Z Z M152.9883,315.2393 C166.3041,313.8399 166.9959,293.4838 153.1026,294.9441 L146.1407,295.6758 C145.1375,295.7813 144.0283,296.6600 144.0081,297.7174 L143.6899,314.3994 C143.6652,315.6918 144.7496,316.1053 145.7528,315.9998 L152.9883,315.2393 Z Z M198.9492,300.1500 C199.0819,293.1892 193.5863,290.2204 188.2710,290.5150 C182.6468,291.1063 176.7418,295.2734 176.6042,302.4985 C176.4667,309.6941 182.2349,312.6931 187.8636,311.8670 C193.1839,311.3079 198.8162,307.1106 198.9492,300.1500 Z Z M194.9665,300.5685 C194.8785,305.1795 191.0942,307.9222 187.5980,308.2896 C184.1933,308.6475 180.5288,306.6878 180.6168,302.0766 C180.7055,297.4364 184.4589,294.7261 187.8636,294.3682 C191.3598,294.0008 195.0549,295.9283 194.9665,300.5685 Z Z M213.0906,306.9001 C213.0659,308.1923 214.0249,308.8242 215.1193,308.7092 C216.2139,308.5942 217.0486,307.7738 217.0731,306.4814 L217.2895,295.1446 L227.1170,306.4224 C227.9835,307.1226 228.4959,307.3034 229.5599,307.1916 C230.3549,306.8734 231.1852,306.2879 231.2100,304.9955 L231.5255,288.4605 C231.5438,287.4913 230.5000,286.5457 229.4054,286.6607 C228.3718,286.7696 227.4700,287.9193 227.4516,288.8887 L227.2341,300.2841 L217.4033,289.1827 C216.5970,288.5052 216.3588,288.2666 215.2644,288.3816 C213.6835,288.5478 213.4206,289.6012 213.4004,290.6586 L213.0906,306.9001 Z Z M259.2424,304.0717 C262.2217,303.7587 262.0824,299.9336 259.3159,300.2244 L250.0431,301.1988 L250.1273,296.7933 L257.7885,295.9881 C260.4942,295.7037 260.5677,291.8562 257.8618,292.1406 L250.2008,292.9458 L250.2847,288.5406 L259.0403,287.6204 C261.7767,287.3327 261.9103,283.5081 259.1131,283.8021 L248.1993,284.9491 C247.1353,285.0609 246.2997,285.9111 246.2795,286.9683 L245.9613,303.6503 C245.9416,304.6782 246.7475,305.3850 247.8115,305.2732 L259.2424,304.0717 Z Z M287.0601,295.3152 C286.5246,299.5338 280.1335,298.9742 277.6719,297.5917 C276.6539,296.8777 275.7673,297.2350 274.9623,298.0817 C274.4000,298.9320 274.3447,300.2274 275.3329,300.9151 C279.4644,303.8222 290.6554,302.4701 291.0106,294.9879 C291.3724,287.1531 278.0953,291.3039 279.0078,286.4008 C279.7046,283.2793 284.7996,283.3886 287.0231,284.5327 C288.8225,285.6332 291.0603,282.8479 289.0237,281.4500 C284.8876,278.7776 275.9605,280.7416 275.1526,286.5130 C274.0512,294.9532 286.7478,291.0099 287.0601,295.3152 Z Z M305.2037,297.4532 C305.1561,299.9495 309.1701,299.4691 309.2168,297.0313 L309.5366,280.2612 C309.5843,277.7647 305.5696,278.2745 305.5238,280.6829 L305.2037,297.4532 Z Z M326.5407,296.0017 L327.8973,293.2801 L339.1155,292.1009 L340.4039,294.5447 C341.4547,296.7208 345.1680,294.5131 343.9651,292.3531 L335.7062,276.7780 C334.9770,275.2424 332.7871,275.5312 331.9365,277.1742 L322.8969,294.5676 C322.2654,295.8650 322.8531,296.8584 323.8162,297.2849 C324.9067,297.3754 326.0354,297.0517 326.5407,296.0017 Z Z M329.8561,289.2051 L333.7338,281.5577 L337.0309,288.4510 L329.8561,289.2051 Z Z M375.8546,284.8686 C375.7687,287.7796 374.2651,288.6703 372.5615,288.9082 C371.2226,289.1074 369.8612,288.8987 368.6137,287.5058 C367.0686,285.7922 364.1009,288.6835 365.6172,290.3120 C367.4572,292.4634 369.6026,292.9123 372.1868,292.6405 C377.4462,292.0878 379.7797,289.0579 379.8677,284.4469 L380.0891,272.8459 C380.1361,270.3788 376.1230,270.8007 376.0760,273.2678 L375.8546,284.8686 Z Z M397.0324,288.5930 L398.3890,285.8711 L409.6072,284.6921 L410.8956,287.1359 C411.9462,289.3117 415.6597,287.1041 414.4568,284.9444 L406.1979,269.3690 C405.4687,267.8336 403.2788,268.1222 402.4280,269.7652 L393.3886,287.1586 C392.7571,288.4562 393.3448,289.4496 394.3079,289.8758 C395.3982,289.9666 396.5271,289.6427 397.0324,288.5930 Z Z M400.3478,281.7961 L404.2255,274.1487 L407.5225,281.0422 L400.3478,281.7961 Z Z M431.3457,278.0985 L431.2303,284.1487 C431.1815,286.7038 435.1935,286.3409 435.2427,283.7563 L435.3588,277.6766 L442.4129,267.3505 C444.0312,265.2166 440.6974,263.4272 439.0455,265.7406 L433.5180,273.9718 L428.3442,266.8654 C426.8069,264.7408 423.4781,267.4646 424.9016,269.1912 L431.3457,278.0985 Z Z M455.4544,282.4525 L456.8110,279.7307 L468.0292,278.5517 L469.3176,280.9954 C470.3682,283.1713 474.0817,280.9639 472.8788,278.8039 L464.6199,263.2286 C463.8907,261.6932 461.7008,261.9820 460.8502,263.6248 L451.8106,281.0184 C451.1792,282.3158 451.7668,283.3092 452.7299,283.7356 C453.8202,283.8261 454.9491,283.5022 455.4544,282.4525 Z Z M458.7698,275.6557 L462.6475,268.0085 L465.9446,274.9018 L458.7698,275.6557 Z"
         style="fill-rule: evenodd; fill: #1b1918; "
         id="path22" />
      <defs
         id="defs23">
        <linearGradient
           id="grad15">
          <stop
             offset="0%"
             stop-color="#224697"
             stop-opacity="1.0000"
             id="stop22" />
          <stop
             offset="100%"
             stop-color="#162b3e"
             stop-opacity="1.0000"
             id="stop23" />
        </linearGradient>
        <linearGradient
           xlink:href="#grad15"
           id="grad16"
           x1="0"
           y1="0"
           x2="0"
           y2="1"
           gradientTransform="rotate(88 .5 .5)"
           gradientUnits="objectBoundingBox" />
      </defs>
      <path
         d="  M164.7994,235.2619 L148.1652,236.8630 L149.2993,251.2575 L165.9405,249.7442 L164.7994,235.2619 Z"
         style="fill: url(#grad16); "
         id="path23" />
      <path
         d="  M153.0257,250.9981 C152.4607,250.9035 152.7565,251.0661 152.3895,250.5478 L151.2835,248.1669 C150.1996,245.0386 149.9830,240.2399 151.2747,237.2889 C151.5281,236.7103 151.4385,236.7772 151.8168,236.7711 C151.8628,235.9859 152.1443,235.5928 152.4845,235.0212 C155.3681,230.1762 158.8588,226.8673 164.5939,225.8201 C165.2011,225.7092 166.2470,225.6536 166.7927,225.6008 C169.0479,225.3819 170.4701,225.4942 172.7190,226.4475 C174.4959,227.2008 175.6205,228.1044 177.0113,229.2587 C177.5629,229.7162 177.6963,230.0473 178.1515,230.5366 L180.1693,233.2427 C180.6102,234.0062 179.7948,233.6873 178.9132,233.7925 C178.3693,233.8574 177.3347,233.9797 176.7394,234.0371 C175.9221,234.1160 175.3755,234.1387 174.5100,234.2258 C173.8998,234.2872 173.0350,234.4639 172.3661,234.5002 L163.9733,235.3451 L165.2372,246.6087 L165.2372,249.8134 C168.4843,249.4904 171.9304,249.2198 175.0475,248.8204 C177.8650,248.4595 180.8640,248.2921 183.8118,247.9122 C188.9785,247.2463 194.1533,248.0222 195.9531,240.7078 C196.5580,238.2491 195.9171,233.8148 195.5076,231.7696 C194.5521,226.9928 192.7532,223.9833 189.9213,220.4280 C188.9996,219.2703 187.4649,217.6354 186.3390,216.7558 C183.2388,214.3331 181.4696,212.9223 176.9573,211.6281 C168.3503,209.1599 160.9197,211.0016 153.4265,214.8026 C151.2334,215.9150 149.5783,217.3260 147.7808,218.8296 C142.4379,223.2990 138.2222,229.7699 136.5508,236.6187 C136.2460,237.8676 136.0053,239.4371 135.8363,240.7409 L135.6671,244.1552 C135.6909,244.5596 135.7823,244.6143 135.8016,245.2310 C135.9382,249.5535 136.8012,253.0626 138.6652,256.8779 C141.0128,261.6835 146.1702,266.4246 150.9095,268.8160 C155.1524,270.9567 161.0351,271.9558 167.3445,271.0440 C170.7010,270.5589 176.5277,268.4424 179.7306,266.5027 C180.2646,266.1795 180.6826,265.8383 181.1389,265.4931 C182.7448,264.2785 184.6136,262.1112 184.6174,259.2980 C184.6213,256.3535 184.0336,254.2890 181.2390,252.9927 C180.0151,252.4250 178.7508,252.2088 177.3488,252.3191 C175.7668,252.4433 174.8248,252.9299 173.7599,253.5786 C172.1962,254.5308 168.8980,255.9688 166.7736,256.2648 C163.8924,256.6665 160.4386,256.2834 158.3648,255.3135 C156.9080,254.6326 153.3880,252.4626 153.0257,250.9981 Z Z M155.3527,236.2322 C155.2234,236.2200 155.3822,236.1059 155.1417,236.4688 L155.3527,236.4540 L155.3527,236.2322 Z"
         style="fill-rule: evenodd; fill: #224697; "
         id="path24" />
      <defs
         id="defs25">
        <linearGradient
           id="grad17">
          <stop
             offset="0%"
             stop-color="#1f5fa9"
             stop-opacity="1.0000"
             id="stop24" />
          <stop
             offset="100%"
             stop-color="#003e59"
             stop-opacity="1.0000"
             id="stop25" />
        </linearGradient>
      </defs>
      <path
         d="  M161.9810,151.4480 L162.6172,180.3932 C158.7887,183.5584 154.1206,185.4542 148.8602,186.4551 L146.2940,171.2783 C155.5654,169.3762 160.9408,162.9039 161.9810,151.4480 Z"
         style="fill: url(#grad17); "
         id="path25" />
      <g
         id="Layer1003">
        <defs
           id="defs27">
          <linearGradient
             id="grad18">
            <stop
               offset="0%"
               stop-color="#1f5fa9"
               stop-opacity="1.0000"
               id="stop26" />
            <stop
               offset="100%"
               stop-color="#11273c"
               stop-opacity="1.0000"
               id="stop27" />
          </linearGradient>
          <linearGradient
             xlink:href="#grad18"
             id="grad19"
             x1="0"
             y1="0"
             x2="0"
             y2="1"
             gradientTransform="rotate(84 .5 .5)"
             gradientUnits="objectBoundingBox" />
        </defs>
        <path
           d="  M354.8129,215.7199 L338.1788,217.3210 L339.3129,231.7156 L355.9541,230.2022 L354.8129,215.7199 Z"
           style="fill: url(#grad19); "
           id="path27" />
        <path
           d="  M343.0393,231.4561 C342.4743,231.3615 342.7700,231.5241 342.4030,231.0059 L341.2971,228.6249 C340.2131,225.4967 339.9965,220.6979 341.2882,217.7470 C341.5416,217.1684 341.4520,217.2353 341.8303,217.2291 C341.8764,216.4439 342.1579,216.0508 342.4981,215.4792 C345.3816,210.6342 348.8724,207.3254 354.6075,206.2781 C355.2146,206.1672 356.2605,206.1117 356.8062,206.0588 C359.0615,205.8399 360.4836,205.9522 362.7325,206.9055 C364.5094,207.6588 365.6340,208.5624 367.0248,209.7167 C367.5765,210.1742 367.7098,210.5053 368.1651,210.9946 L370.1828,213.7008 C370.6238,214.4642 369.8084,214.1453 368.9267,214.2506 C368.3828,214.3154 367.3483,214.4377 366.7529,214.4951 C365.9357,214.5740 365.3890,214.5967 364.5235,214.6838 C363.9133,214.7453 363.0485,214.9220 362.3796,214.9582 L353.9869,215.8031 L355.2507,227.0667 L355.2507,230.2714 C358.4978,229.9484 361.9439,229.6778 365.0610,229.2784 C367.8786,228.9175 370.8776,228.7501 373.8253,228.3702 C378.9920,227.7043 384.1669,228.4802 385.9667,221.1658 C386.5716,218.7071 385.9306,214.2728 385.5212,212.2276 C384.5656,207.4508 382.7667,204.4414 379.9349,200.8860 C379.0131,199.7283 377.4784,198.0934 376.3525,197.2138 C373.2524,194.7912 371.4832,193.3803 366.9709,192.0861 C358.3638,189.6179 350.9332,191.4597 343.4401,195.2607 C341.2470,196.3730 339.5919,197.7840 337.7943,199.2876 C332.4514,203.7571 328.2358,210.2279 326.5643,217.0767 C326.2595,218.3256 326.0188,219.8952 325.8499,221.1989 L325.6806,224.6132 C325.7045,225.0176 325.7959,225.0723 325.8152,225.6890 C325.9517,230.0115 326.8147,233.5206 328.6787,237.3359 C331.0263,242.1415 336.1837,246.8827 340.9231,249.2740 C345.1659,251.4147 351.0487,252.4139 357.3581,251.5021 C360.7145,251.0169 366.5413,248.9004 369.7442,246.9607 C370.2781,246.6375 370.6961,246.2963 371.1525,245.9511 C372.7584,244.7365 374.6271,242.5693 374.6310,239.7560 C374.6348,236.8115 374.0471,234.7470 371.2525,233.4507 C370.0286,232.8830 368.7643,232.6668 367.3623,232.7771 C365.7803,232.9014 364.8383,233.3879 363.7734,234.0366 C362.2097,234.9888 358.9116,236.4268 356.7872,236.7228 C353.9059,237.1245 350.4521,236.7414 348.3783,235.7715 C346.9215,235.0906 343.4015,232.9207 343.0393,231.4561 Z Z M345.3662,216.6902 C345.2369,216.6780 345.3957,216.5639 345.1553,216.9268 L345.3662,216.9121 L345.3662,216.6902 Z"
           style="fill-rule: evenodd; fill: #1f5fa9; "
           id="path28" />
      </g>
      <path
         d="  M497.8553,235.2029 C497.4286,235.2208 497.6383,235.3406 497.4569,234.9886 C497.3209,234.7251 497.4003,234.7893 497.3765,234.4925 C497.3399,234.0342 497.3019,233.7104 497.2760,233.4365 C497.2111,232.7512 497.3211,233.0609 497.2461,232.4543 C497.1426,231.6169 496.9755,229.8079 496.7063,229.1321 L495.7532,224.6003 C495.5995,223.8882 495.9151,223.6225 495.5281,222.5349 C495.1911,221.5876 494.9965,220.7717 495.4051,219.7876 C494.5975,220.0568 494.8500,220.0267 494.2875,220.5417 C493.6863,221.0921 491.7208,222.3219 491.0264,222.6099 C487.2845,224.1623 483.1308,224.6854 479.1671,223.6398 C477.6852,223.2489 475.7653,222.0268 474.5473,221.2013 C469.6629,217.8900 468.0455,211.8190 469.2258,205.9929 C469.8123,203.0989 469.9081,203.3337 471.2071,200.9155 C471.9086,199.6097 473.1601,197.8690 474.1956,196.8454 C475.5370,195.5194 476.2532,194.6464 478.0709,193.6622 C478.9276,193.1982 479.4313,192.9222 480.3838,192.5179 C482.9512,191.4281 486.7590,191.0647 489.5244,191.5282 C495.5884,192.5449 501.3920,198.0569 501.4621,204.3674 C501.5598,213.1664 501.8996,223.5163 502.0728,232.6089 C504.6045,236.9933 508.1633,237.4540 512.5009,235.1555 C514.1608,234.2761 515.4650,232.6984 516.0251,230.9006 C516.6023,229.0475 516.2928,225.6100 516.2928,223.2450 C516.2928,218.8955 516.5059,203.8698 515.9972,200.2027 C515.6626,197.7899 515.0936,195.9409 514.4033,193.8736 C513.2909,190.5407 511.3954,188.1195 509.1322,185.6038 C509.0191,185.4782 509.0187,185.4721 508.9331,185.3708 L506.9827,183.4318 C504.6045,181.3863 504.4482,181.2482 501.5397,179.5116 C497.0641,176.8392 491.0785,176.1359 485.0459,176.5800 C480.0991,176.9442 473.4027,179.6342 469.5181,182.5154 C469.0725,182.8458 468.8347,183.0689 468.3896,183.4035 L466.2721,185.1753 C462.7812,188.4931 460.0405,191.0857 457.5711,196.0654 C455.5247,200.1919 455.0115,202.0668 454.2879,206.4676 C453.4632,211.4841 454.6530,218.2571 456.1233,221.9082 C456.5081,222.8637 456.8343,223.7388 457.2812,224.6396 C458.1316,226.3539 459.3502,227.7031 460.5267,229.1731 C462.4844,231.6192 466.3610,234.6650 469.1195,236.1378 C473.8802,238.6795 479.5186,239.6897 485.6558,238.8479 C489.5222,238.3176 488.7316,238.5014 492.2085,237.6219 C493.1715,237.3783 494.2122,237.0021 495.1202,236.6444 C495.6431,236.4383 496.0003,236.2468 496.5185,236.0261 C497.0596,235.7959 497.4835,235.7046 497.8553,235.2029 Z"
         style="fill-rule: evenodd; fill: #1f5fa9; "
         id="path29" />
      <defs
         id="defs30">
        <linearGradient
           id="grad20">
          <stop
             offset="0%"
             stop-color="#1f5fa9"
             stop-opacity="1.0000"
             id="stop29" />
          <stop
             offset="100%"
             stop-color="#003e59"
             stop-opacity="1.0000"
             id="stop30" />
        </linearGradient>
      </defs>
      <path
         d="  M501.4930,205.0212 L502.0994,232.6089 C498.4505,235.6257 494.0012,237.4326 488.9876,238.3866 L486.5417,223.9215 C495.3783,222.1086 500.5016,215.9398 501.4930,205.0212 Z"
         style="fill: url(#grad20); "
         id="path30" />
      <defs
         id="defs32">
        <linearGradient
           id="grad21">
          <stop
             offset="0%"
             stop-color="#224697"
             stop-opacity="1.0000"
             id="stop31" />
          <stop
             offset="100%"
             stop-color="#072d3f"
             stop-opacity="1.0000"
             id="stop32" />
        </linearGradient>
        <linearGradient
           xlink:href="#grad21"
           id="grad22"
           x1="0"
           y1="0"
           x2="0"
           y2="1"
           gradientTransform="rotate(306 .5 .5)"
           gradientUnits="objectBoundingBox" />
      </defs>
      <path
         d="  M206.0726,232.5677 C207.5694,225.3930 212.1230,214.1154 220.2787,208.9605 C216.6911,204.4652 211.6081,205.2280 208.6003,207.8609 C204.8757,210.8252 205.7299,219.8203 206.0726,232.5677 Z"
         style="fill: url(#grad22); "
         id="path32" />
      <defs
         id="defs34">
        <linearGradient
           id="grad23">
          <stop
             offset="0%"
             stop-color="#1f5fa9"
             stop-opacity="1.0000"
             id="stop33" />
          <stop
             offset="100%"
             stop-color="#003c53"
             stop-opacity="1.0000"
             id="stop34" />
        </linearGradient>
        <linearGradient
           xlink:href="#grad23"
           id="grad24"
           x1="0"
           y1="0"
           x2="0"
           y2="1"
           gradientTransform="rotate(269 .5 .5)"
           gradientUnits="objectBoundingBox" />
      </defs>
      <path
         d="  M399.9035,125.6127 L400.0933,142.9770 L400.1371,148.3091 L400.1507,150.6644 L400.1485,154.8049 L400.1378,155.4123 L400.1047,155.9079 C396.2762,159.0732 391.6031,161.1293 386.3427,162.1302 L383.7815,146.7930 C393.0529,144.8909 398.8633,137.0686 399.9035,125.6127 Z"
         style="fill: url(#grad24); "
         id="path34" />
      <defs
         id="defs36">
        <linearGradient
           id="grad25">
          <stop
             offset="0%"
             stop-color="#1f5fa9"
             stop-opacity="1.0000"
             id="stop35" />
          <stop
             offset="100%"
             stop-color="#063868"
             stop-opacity="1.0000"
             id="stop36" />
        </linearGradient>
        <linearGradient
           xlink:href="#grad25"
           id="grad26"
           x1="0"
           y1="0"
           x2="0"
           y2="1"
           gradientTransform="rotate(297 .5 .5)"
           gradientUnits="objectBoundingBox" />
      </defs>
      <path
         d="  M395.2875,214.6904 L395.2875,184.7844 L395.2875,175.7076 L395.2875,175.6035 L395.2875,175.5007 L395.2875,175.3989 C395.2887,173.3416 395.3138,171.9714 395.8897,170.4150 C397.6129,165.7584 402.0834,163.6041 406.9805,165.9784 C409.0912,167.0018 409.7569,168.6869 409.9409,170.5191 L409.9409,203.6337 L395.2875,214.6904 Z"
         style="fill: url(#grad26); "
         id="path36" />
      <defs
         id="defs38">
        <linearGradient
           id="grad27">
          <stop
             offset="0%"
             stop-color="#1f5fa9"
             stop-opacity="1.0000"
             id="stop37" />
          <stop
             offset="100%"
             stop-color="#003d63"
             stop-opacity="1.0000"
             id="stop38" />
        </linearGradient>
        <linearGradient
           xlink:href="#grad27"
           id="grad28"
           x1="0"
           y1="0"
           x2="0"
           y2="1"
           gradientTransform="rotate(136 .5 .5)"
           gradientUnits="objectBoundingBox" />
      </defs>
      <path
         d="  M409.9636,238.5342 C409.8667,241.9194 409.1107,244.5678 404.7905,246.3404 C399.4741,248.5217 395.4903,245.0094 395.2880,240.3025 L395.2882,231.2628 L409.9472,220.4032 L409.9636,238.5342 Z"
         style="fill: url(#grad28); "
         id="path38" />
      <path
         d="  M395.2875,214.6904 L436.3933,183.5659 C444.9836,178.3142 451.9857,188.9188 442.9119,195.9801 L395.2875,231.2628 L395.2875,214.6904 Z"
         style="fill-rule: evenodd; fill: #1f5fa9; "
         id="path39" />
      <defs
         id="defs40">
        <linearGradient
           id="grad29">
          <stop
             offset="0%"
             stop-color="#1f5fa9"
             stop-opacity="1.0000"
             id="stop39" />
          <stop
             offset="100%"
             stop-color="#063866"
             stop-opacity="1.0000"
             id="stop40" />
        </linearGradient>
        <linearGradient
           xlink:href="#grad29"
           id="grad30"
           x1="0"
           y1="0"
           x2="0"
           y2="1"
           gradientTransform="rotate(141 .5 .5)"
           gradientUnits="objectBoundingBox" />
      </defs>
      <path
         d="  M413.5185,217.7560 L425.8386,208.6287 L444.7346,230.4951 C451.3722,237.8769 440.9837,247.2667 433.9984,241.1455 L413.5185,217.7560 Z"
         style="fill: url(#grad30); "
         id="path40" />
      <defs
         id="defs42">
        <linearGradient
           id="grad31">
          <stop
             offset="0%"
             stop-color="#1f5fa9"
             stop-opacity="1.0000"
             id="stop41" />
          <stop
             offset="100%"
             stop-color="#063868"
             stop-opacity="1.0000"
             id="stop42" />
        </linearGradient>
        <linearGradient
           xlink:href="#grad31"
           id="grad32"
           x1="0"
           y1="0"
           x2="0"
           y2="1"
           gradientTransform="rotate(297 .5 .5)"
           gradientUnits="objectBoundingBox" />
      </defs>
      <path
         d="  M50.5781,156.9779 L50.6448,128.5246 L50.6448,118.5573 L50.6448,118.4430 L50.6448,118.3302 L50.6448,118.2184 C50.6459,115.9593 50.6711,114.4547 51.2470,112.7456 C52.9701,107.6322 57.4407,105.2665 62.3377,107.8738 C64.4485,108.9976 65.1142,110.8479 65.2981,112.8599 L65.5213,141.3063 L50.5781,156.9779 Z"
         style="fill: url(#grad32); "
         id="path42" />
      <defs
         id="defs44">
        <linearGradient
           id="grad33">
          <stop
             offset="0%"
             stop-color="#1f5fa9"
             stop-opacity="1.0000"
             id="stop43" />
          <stop
             offset="100%"
             stop-color="#003d63"
             stop-opacity="1.0000"
             id="stop44" />
        </linearGradient>
        <linearGradient
           xlink:href="#grad33"
           id="grad34"
           x1="0"
           y1="0"
           x2="0"
           y2="1"
           gradientTransform="rotate(136 .5 .5)"
           gradientUnits="objectBoundingBox" />
      </defs>
      <path
         d="  M65.2537,185.4302 C65.1568,189.1475 64.4008,192.0557 60.0806,194.0021 C54.7642,196.3974 50.7804,192.5406 50.5781,187.3719 L50.5783,177.2274 L65.2373,161.9348 L65.2537,185.4302 Z"
         style="fill: url(#grad34); "
         id="path44" />
      <defs
         id="defs46">
        <linearGradient
           id="grad35">
          <stop
             offset="0%"
             stop-color="#1f5fa9"
             stop-opacity="1.0000"
             id="stop45" />
          <stop
             offset="100%"
             stop-color="#063866"
             stop-opacity="1.0000"
             id="stop46" />
        </linearGradient>
        <linearGradient
           xlink:href="#grad35"
           id="grad36"
           x1="0"
           y1="0"
           x2="0"
           y2="1"
           gradientTransform="rotate(141 .5 .5)"
           gradientUnits="objectBoundingBox" />
      </defs>
      <path
         d="  M69.8165,157.1611 L80.8355,145.6442 L108.1507,176.8760 C115.2075,184.6198 105.3785,195.4654 98.0476,189.1224 L69.8165,157.1611 Z"
         style="fill: url(#grad36); "
         id="path46" />
      <defs
         id="defs48">
        <linearGradient
           id="grad37">
          <stop
             offset="0%"
             stop-color="#1f5fa9"
             stop-opacity="1.0000"
             id="stop47" />
          <stop
             offset="100%"
             stop-color="#063864"
             stop-opacity="1.0000"
             id="stop48" />
        </linearGradient>
        <linearGradient
           xlink:href="#grad37"
           id="grad38"
           x1="0"
           y1="0"
           x2="0"
           y2="1"
           gradientTransform="rotate(51 .5 .5)"
           gradientUnits="objectBoundingBox" />
      </defs>
      <path
         d="  M99.6881,105.4522 C104.7944,99.0537 115.9754,107.2790 109.7404,115.4320 L50.5985,177.2477 L50.5781,156.9778 L99.6881,105.4522 Z"
         style="fill: url(#grad38); "
         id="path48" />
      <defs
         id="defs50">
        <linearGradient
           id="grad39">
          <stop
             offset="0%"
             stop-color="#0f74bb"
             stop-opacity="1.0000"
             id="stop49" />
          <stop
             offset="100%"
             stop-color="#0a375b"
             stop-opacity="1.0000"
             id="stop50" />
        </linearGradient>
        <linearGradient
           xlink:href="#grad39"
           id="grad40"
           x1="0"
           y1="0"
           x2="0"
           y2="1"
           gradientTransform="rotate(98 .5 .5)"
           gradientUnits="objectBoundingBox" />
      </defs>
      <path
         d="  M454.1271,115.6205 C445.2479,114.0192 439.8993,115.0757 439.9090,112.2253 C433.2360,120.0264 434.1505,128.5723 442.8910,130.6545 L450.4311,131.7495 L454.1271,115.6205 Z"
         style="fill: url(#grad40); "
         id="path50" />
      <defs
         id="defs52">
        <linearGradient
           id="grad41">
          <stop
             offset="0%"
             stop-color="#0f74bb"
             stop-opacity="1.0000"
             id="stop51" />
          <stop
             offset="100%"
             stop-color="#00364c"
             stop-opacity="1.0000"
             id="stop52" />
        </linearGradient>
        <linearGradient
           xlink:href="#grad41"
           id="grad42"
           x1="0"
           y1="0"
           x2="0"
           y2="1"
           gradientTransform="rotate(230 .5 .5)"
           gradientUnits="objectBoundingBox" />
      </defs>
      <path
         d="  M448.6701,139.8885 C453.1879,139.7002 457.0399,137.1523 460.3875,132.9353 C469.0758,133.4334 474.0910,140.6989 466.1385,148.4486 C462.3996,151.5832 460.4755,152.1820 456.3016,154.1769 L448.6701,139.8885 Z"
         style="fill: url(#grad42); "
         id="path52" />
      <defs
         id="defs54">
        <linearGradient
           id="grad43">
          <stop
             offset="0%"
             stop-color="#224697"
             stop-opacity="1.0000"
             id="stop53" />
          <stop
             offset="100%"
             stop-color="#003853"
             stop-opacity="1.0000"
             id="stop54" />
        </linearGradient>
        <linearGradient
           xlink:href="#grad43"
           id="grad44"
           x1="0"
           y1="0"
           x2="0"
           y2="1"
           gradientTransform="rotate(-0 .5 .5)"
           gradientUnits="objectBoundingBox" />
      </defs>
      <path
         d="  M300.9534,193.2245 L315.5083,193.2245 L315.6101,227.5138 C314.8814,247.0886 290.8795,252.4717 279.8772,244.1026 C293.5185,244.6653 301.9908,235.7296 300.9534,224.0707 L300.9534,193.2245 Z"
         style="fill: url(#grad44); "
         id="path54" />
      <defs
         id="defs56">
        <linearGradient
           id="grad45">
          <stop
             offset="0%"
             stop-color="#224697"
             stop-opacity="1.0000"
             id="stop55" />
          <stop
             offset="100%"
             stop-color="#03194d"
             stop-opacity="1.0000"
             id="stop56" />
        </linearGradient>
      </defs>
      <path
         d="  M288.4641,197.7128 C292.0896,197.6017 296.2501,198.4305 300.9699,200.1679 L301.0387,224.4558 C299.6118,217.6667 295.0489,213.7262 288.4641,212.6449 L288.4641,197.7128 Z"
         style="fill: url(#grad45); "
         id="path56" />
    </g>
  </g>
</svg>
